<svg width="137" height="137" viewBox="0 0 137 137" fill="none" xmlns="http://www.w3.org/2000/svg">
<path fill-rule="evenodd" clip-rule="evenodd" d="M134.082 2.91814C137.973 6.80899 137.973 13.1167 134.082 17.0075L82.5899 68.4995L134.082 119.991C137.973 123.882 137.973 130.191 134.082 134.082C130.191 137.973 123.882 137.973 119.991 134.082L68.4995 82.5899L17.0075 134.082C13.1167 137.973 6.80899 137.973 2.91814 134.082C-0.972714 130.191 -0.972714 123.882 2.91814 119.991L54.4101 68.4995L2.91814 17.0075C-0.972714 13.1167 -0.972714 6.80899 2.91814 2.91814C6.80899 -0.972714 13.1167 -0.972714 17.0075 2.91814L68.4995 54.4101L119.991 2.91814C123.882 -0.972714 130.191 -0.972714 134.082 2.91814V2.91814Z" fill="black"/>
</svg>
