<svg width="398" height="398" viewBox="0 0 398 398" fill="none" xmlns="http://www.w3.org/2000/svg">
<path d="M159.45 0.555H14.55C6.81559 0.555 0.549988 6.8206 0.549988 14.555V159.455C0.549988 167.189 6.81559 173.455 14.55 173.455H159.45C167.184 173.455 173.45 167.189 173.45 159.455V14.555C173.45 6.8206 167.177 0.555 159.45 0.555ZM145.45 145.455H28.55V28.555H145.45V145.455ZM383.45 0.555H238.55C230.816 0.555 224.55 6.8206 224.55 14.555V159.455C224.55 167.189 230.816 173.455 238.55 173.455H383.45C391.184 173.455 397.45 167.189 397.45 159.455V14.555C397.45 6.8206 391.177 0.555 383.45 0.555ZM369.45 145.455H252.55V28.555H369.45V145.455ZM159.45 224.557H14.55C6.81559 224.557 0.549988 230.823 0.549988 238.557V383.457C0.549988 391.191 6.81559 397.457 14.55 397.457H159.45C167.184 397.457 173.45 391.191 173.45 383.457V238.557C173.45 230.823 167.177 224.557 159.45 224.557ZM145.45 369.457H28.55V252.557H145.45V369.457ZM383.45 224.557H238.55C230.816 224.557 224.55 230.823 224.55 238.557V383.457C224.55 391.191 230.816 397.457 238.55 397.457H383.45C391.184 397.457 397.45 391.191 397.45 383.457V238.557C397.45 230.823 391.177 224.557 383.45 224.557ZM369.45 369.457H252.55V252.557H369.45V369.457Z" fill="black"/>
</svg>
