<svg width="27" height="26" viewBox="0 0 27 26" fill="none" xmlns="http://www.w3.org/2000/svg">
<path d="M26.2672 11.938L20.527 16.3044C20.4196 16.3854 20.3758 16.5263 20.4181 16.6542L22.4959 23.4957C22.5996 23.8808 22.5857 24.288 22.4562 24.665C22.3269 25.0421 22.0877 25.3716 21.77 25.6106C21.4401 25.8616 21.038 25.9983 20.624 26C20.2382 25.9996 19.861 25.8852 19.5396 25.6709L13.5093 21.4571C13.4456 21.4095 13.3584 21.4095 13.2947 21.4571L7.43035 25.6386C7.10052 25.8655 6.70854 25.9837 6.30862 25.9766C5.90893 25.9696 5.52119 25.8378 5.1994 25.5996C4.87899 25.3636 4.63651 25.0366 4.50335 24.6607C4.37 24.2849 4.3521 23.8775 4.45197 23.4914L6.51144 16.4812C6.55319 16.3525 6.50797 16.2112 6.39906 16.1312L0.742612 11.9142C0.431444 11.6647 0.202634 11.3265 0.0862243 10.9439C-0.0302003 10.5614 -0.0286584 10.1525 0.0904579 9.77105C0.222854 9.39749 0.459358 9.07013 0.771872 8.82816C1.08458 8.58602 1.45984 8.43934 1.85316 8.40552L9.0821 8.17227C9.21853 8.17189 9.33919 8.08357 9.38152 7.95332L11.6757 1.28106H11.6755C11.8245 0.913309 12.0762 0.596768 12.4003 0.369495C12.7243 0.142038 13.1071 0.0137235 13.5021 0H13.5112C13.9047 0.0119816 14.2867 0.137591 14.6109 0.361762C14.9354 0.585736 15.1888 0.898977 15.3406 1.26383L17.7492 8.06126C17.7929 8.19093 17.9143 8.27789 18.0505 8.27731L25.1248 8.44061C25.5185 8.47056 25.8951 8.61356 26.2099 8.8528C26.5247 9.09185 26.7645 9.41688 26.9004 9.78911C27.0262 10.1692 27.033 10.5789 26.9198 10.9631C26.8067 11.3473 26.579 11.6874 26.2677 11.9378L26.2672 11.938Z" fill="#FFC727"/>
</svg>
